<?xml version="1.0" encoding="utf-8"?>
<!-- Generator: Adobe Illustrator 15.0.0, SVG Export Plug-In  -->
<!DOCTYPE svg PUBLIC "-//W3C//DTD SVG 1.1//EN" "http://www.w3.org/Graphics/SVG/1.1/DTD/svg11.dtd" [
	<!ENTITY ns_flows "http://ns.adobe.com/Flows/1.0/">
]>
<svg version="1.1"
	 xmlns="http://www.w3.org/2000/svg" xmlns:xlink="http://www.w3.org/1999/xlink" xmlns:a="http://ns.adobe.com/AdobeSVGViewerExtensions/3.0/"
	 x="0px" y="0px" width="25px" height="60px" viewBox="0 0 25 60" overflow="visible" enable-background="new 0 0 25 60"
	 xml:space="preserve">
<defs>
</defs>
<g>
	<defs>
		<rect id="SVGID_1_" width="25" height="59.979"/>
	</defs>
	<clipPath id="SVGID_2_">
		<use xlink:href="#SVGID_1_"  overflow="visible"/>
	</clipPath>
	<path clip-path="url(#SVGID_2_)" fill="#55BE8E" d="M22.249,27.241V12.501v-0.004h0.006c0-1.336-0.276-2.612-0.771-3.78
		c-0.09-0.212-0.177-0.4-0.26-0.565c-0.47-0.934-1.094-1.792-1.836-2.539l-0.004,0.003l-0.005-0.004
		c-0.259-0.26-0.521-0.495-0.777-0.702c-0.27-0.218-0.554-0.421-0.854-0.616c-1.516-0.977-3.317-1.539-5.248-1.539h-0.006V2.749
		c-1.334,0-2.613,0.276-3.779,0.771C8.503,3.61,8.314,3.697,8.152,3.778C7.22,4.246,6.365,4.872,5.616,5.617L5.611,5.622
		c-0.26,0.261-0.496,0.524-0.702,0.778C4.692,6.668,4.486,6.956,4.292,7.252C3.317,8.77,2.751,10.57,2.751,12.501v14.739H22.249z
		 M25,12.501v16.111v1.377h-1.375H1.375H0v-1.377V12.501c0-2.47,0.728-4.782,1.983-6.729c0.24-0.376,0.503-0.741,0.788-1.09
		C3.065,4.316,3.364,3.979,3.668,3.68L3.67,3.675c0.938-0.942,2.037-1.736,3.257-2.347c0.257-0.131,0.494-0.241,0.714-0.333
		c1.491-0.633,3.132-0.986,4.853-0.988V0H12.5c2.473,0,4.783,0.73,6.732,1.984c0.373,0.241,0.736,0.504,1.089,0.789
		c0.365,0.296,0.702,0.593,1.004,0.896l0.005,0.006v0.005c0.941,0.94,1.735,2.038,2.345,3.251c0.128,0.254,0.24,0.492,0.332,0.711
		c0.634,1.492,0.987,3.134,0.987,4.855H25V12.501z"/>
	<path clip-path="url(#SVGID_2_)" fill="#55BE8E" d="M25,47.478V31.367V29.99h-1.375H1.375H0v1.376v16.111
		c0,2.471,0.728,4.782,1.983,6.729c0.24,0.375,0.503,0.74,0.788,1.09c0.294,0.365,0.593,0.704,0.897,1.003l0.002,0.004
		c0.938,0.941,2.037,1.735,3.257,2.347c0.257,0.131,0.494,0.241,0.714,0.333c1.491,0.633,3.132,0.986,4.853,0.988v0.007H12.5
		c2.473,0,4.783-0.729,6.732-1.984c0.373-0.24,0.736-0.503,1.089-0.789c0.365-0.296,0.702-0.592,1.004-0.896l0.005-0.006v-0.005
		c0.941-0.94,1.735-2.038,2.345-3.25c0.128-0.255,0.24-0.493,0.332-0.712c0.634-1.492,0.987-3.135,0.987-4.854H25V47.478z
		 M4.589,32.686h2.559v13.199H4.589V32.686z"/>
	
		<rect x="4.589" y="12.481" clip-path="url(#SVGID_2_)" fill-rule="evenodd" clip-rule="evenodd" fill="#55BE8E" width="2.559" height="13.2"/>
</g>
</svg>
