<?xml version="1.0" encoding="utf-8"?>
<!-- Generator: Adobe Illustrator 15.0.0, SVG Export Plug-In  -->
<!DOCTYPE svg PUBLIC "-//W3C//DTD SVG 1.1//EN" "http://www.w3.org/Graphics/SVG/1.1/DTD/svg11.dtd" [
	<!ENTITY ns_flows "http://ns.adobe.com/Flows/1.0/">
]>
<svg version="1.1"
	 xmlns="http://www.w3.org/2000/svg" xmlns:xlink="http://www.w3.org/1999/xlink" xmlns:a="http://ns.adobe.com/AdobeSVGViewerExtensions/3.0/"
	 x="0px" y="0px" width="55px" height="55px" viewBox="0 0 55 55" overflow="visible" enable-background="new 0 0 55 55"
	 xml:space="preserve">
<defs>
</defs>
<g>
	<defs>
		<rect id="SVGID_1_" width="55" height="55.497"/>
	</defs>
	<clipPath id="SVGID_2_">
		<use xlink:href="#SVGID_1_"  overflow="visible"/>
	</clipPath>
	<path clip-path="url(#SVGID_2_)" fill="#55BE8E" d="M16.015,10.03c-0.547-0.198-0.83-0.803-0.632-1.351
		c0.198-0.546,0.803-0.829,1.35-0.631l0.121,0.044l0.045,0.017c0.913,0.327,1.831,0.609,2.753,0.845
		c0.937,0.241,1.884,0.436,2.839,0.585c4.878,0.763,9.926,0.318,15.092-1.327c0.554-0.176,1.146,0.131,1.322,0.685
		c0.174,0.554-0.134,1.146-0.688,1.321c-5.478,1.745-10.849,2.215-16.05,1.402c-1.017-0.159-2.03-0.367-3.037-0.626
		c-0.989-0.254-1.969-0.555-2.938-0.902c-0.019-0.005-0.039-0.012-0.058-0.019L16.015,10.03z"/>
	<path clip-path="url(#SVGID_2_)" fill-rule="evenodd" clip-rule="evenodd" fill="#55BE8E" d="M45.811,14.639
		c1.437,0,2.601,1.164,2.601,2.6c0,1.435-1.164,2.599-2.601,2.599s-2.6-1.164-2.6-2.599C43.211,15.803,44.374,14.639,45.811,14.639"
		/>
	<path clip-path="url(#SVGID_2_)" fill-rule="evenodd" clip-rule="evenodd" fill="#55BE8E" d="M45.964,22.905
		c0.881,0,1.594,0.714,1.594,1.593c0,0.88-0.713,1.592-1.594,1.592c-0.88,0-1.593-0.712-1.593-1.592
		C44.371,23.619,45.084,22.905,45.964,22.905"/>
	<path clip-path="url(#SVGID_2_)" fill-rule="evenodd" clip-rule="evenodd" fill="#55BE8E" d="M21.98,3.55
		c8.343,0,16.377-3.669,23.771-1.072c1.976,1.099,3.909,2.029,4.724,5.358c-2.009,1.738-3.741,3.641-6.561,3.432
		c-7.028-0.52-14.116-0.864-21.172-1.296C19.378,9.767,19.978,3.8,21.98,3.55"/>
	<path clip-path="url(#SVGID_2_)" fill="#55BE8E" d="M24.027,1.571c1.6,0.432,3.067,0.653,4.496,0.649
		c1.422-0.004,2.838-0.227,4.346-0.685c3.702-1.123,7.422-1.873,10.73-1.382c3.553,0.528,6.559,2.404,8.486,6.572l0.005,0.006
		c0.663,1.435,1.208,2.941,1.642,4.501c0.427,1.534,0.744,3.124,0.954,4.748c1.068,8.239-0.646,17.201-4.271,24.329l-0.002,0.006
		c-0.454,0.89-0.954,1.784-1.496,2.669c-0.527,0.859-1.122,1.74-1.777,2.626c-3.326,4.497-7.858,8.387-13.271,9.551l-0.014,0.004
		c-0.112,0.022-0.223,0.046-0.332,0.065c-0.096,0.021-0.209,0.04-0.342,0.062c-0.569,0.098-1.151,0.164-1.747,0.196
		c-2.562,0.144-3.458-1.298-3.592-3.706c-0.07-1.255,0.111-2.745,0.316-4.415c0.483-3.939,1.105-8.997-1.606-12.091
		c-0.018,0.017-0.04,0.039-0.065,0.059c-2.862,2.303-2.265,7.585-1.792,11.764c0.23,2.029,0.435,3.831,0.248,5.221
		c-0.289,2.146-1.275,3.342-3.599,3.03c-3.906-0.523-7.356-2.325-10.284-4.986c-4.108-3.732-7.186-9.167-9.036-15.086
		c-1.837-5.877-2.472-12.27-1.708-17.966C0.98,12.366,2.7,7.919,5.606,4.721l0.012-0.012V4.708C6.275,3.988,7.011,3.37,7.81,2.843
		c0.788-0.519,1.623-0.937,2.488-1.266C14.588-0.054,19.792,0.43,24.027,1.571 M28.523,5.378c-1.738,0.004-3.468-0.25-5.314-0.748
		c-3.718-1.002-8.224-1.45-11.797-0.093C10.747,4.79,10.12,5.103,9.544,5.482C8.979,5.854,8.447,6.303,7.959,6.838L7.948,6.851
		C5.496,9.55,4.031,13.399,3.45,17.731C2.747,22.97,3.341,28.878,5.047,34.335c1.69,5.412,4.468,10.346,8.144,13.687
		c2.472,2.245,5.352,3.762,8.575,4.194c0.001,0,0.018-0.119,0.045-0.317c0.132-0.987-0.053-2.619-0.261-4.453
		c-0.558-4.939-1.264-11.18,2.956-14.576c0.754-0.607,1.204-0.969,1.98-1.029c0.883-0.065,1.475,0.294,2.283,1.17
		c3.834,4.158,3.102,10.114,2.536,14.739c-0.188,1.542-0.359,2.919-0.307,3.86c0.027,0.451,0.096,0.73,0.264,0.72
		c0.467-0.025,0.934-0.079,1.398-0.158c0.073-0.013,0.159-0.028,0.267-0.049c0.091-0.018,0.182-0.035,0.27-0.055l0.016-0.002
		c4.555-0.98,8.463-4.385,11.387-8.339c0.56-0.755,1.1-1.563,1.616-2.402c0.504-0.818,0.962-1.639,1.374-2.448v-0.004
		c3.361-6.604,4.949-14.89,3.964-22.496c-0.191-1.458-0.478-2.899-0.868-4.303c-0.383-1.382-0.871-2.726-1.467-4.017l-0.006-0.007
		c-1.399-3.029-3.55-4.388-6.072-4.762c-2.77-0.411-6.045,0.266-9.354,1.27C31.978,5.105,30.264,5.374,28.523,5.378 M26.633,35.044
		c0.135-0.036,0.258-0.058,0.088-0.046C26.654,35.004,26.637,35.019,26.633,35.044"/>
	<path clip-path="url(#SVGID_2_)" fill-rule="evenodd" clip-rule="evenodd" fill="#2DA9E0" d="M42.268,6.341
		c0.236,0,0.431,0.193,0.431,0.432c0,0.237-0.194,0.431-0.431,0.431c-0.237,0-0.433-0.194-0.433-0.431
		C41.835,6.534,42.03,6.341,42.268,6.341"/>
</g>
</svg>
