<?xml version="1.0" encoding="utf-8"?>
<!-- Generator: Adobe Illustrator 15.0.0, SVG Export Plug-In  -->
<!DOCTYPE svg PUBLIC "-//W3C//DTD SVG 1.1//EN" "http://www.w3.org/Graphics/SVG/1.1/DTD/svg11.dtd" [
	<!ENTITY ns_flows "http://ns.adobe.com/Flows/1.0/">
]>
<svg version="1.1"
	 xmlns="http://www.w3.org/2000/svg" xmlns:xlink="http://www.w3.org/1999/xlink" xmlns:a="http://ns.adobe.com/AdobeSVGViewerExtensions/3.0/"
	 x="0px" y="0px" width="55px" height="55px" viewBox="0 0 55 55" overflow="visible" enable-background="new 0 0 55 55"
	 xml:space="preserve">
<defs>
</defs>
<g>
	<defs>
		<rect id="SVGID_1_" width="55.001" height="55.497"/>
	</defs>
	<clipPath id="SVGID_2_">
		<use xlink:href="#SVGID_1_"  overflow="visible"/>
	</clipPath>
	<path clip-path="url(#SVGID_2_)" fill="#55BE8E" d="M16.015,10.03c-0.547-0.198-0.828-0.802-0.631-1.35
		c0.197-0.547,0.803-0.83,1.351-0.631l0.12,0.043l0.047,0.018c0.913,0.326,1.831,0.609,2.751,0.845
		c0.938,0.241,1.883,0.436,2.839,0.585c4.876,0.762,9.926,0.318,15.092-1.327c0.554-0.176,1.145,0.131,1.321,0.684
		c0.173,0.554-0.133,1.147-0.688,1.321c-5.478,1.746-10.848,2.216-16.048,1.402c-1.018-0.158-2.03-0.367-3.038-0.626
		c-0.99-0.254-1.968-0.555-2.938-0.902c-0.019-0.005-0.039-0.011-0.057-0.019L16.015,10.03z"/>
	<path clip-path="url(#SVGID_2_)" fill="#55BE8E" d="M24.029,1.572c1.6,0.431,3.067,0.652,4.495,0.648
		c1.422-0.004,2.838-0.227,4.346-0.685c3.703-1.123,7.422-1.872,10.73-1.381c3.553,0.527,6.561,2.404,8.487,6.57l0.005,0.007
		c0.661,1.435,1.209,2.941,1.641,4.5c0.428,1.535,0.744,3.125,0.954,4.749c1.068,8.238-0.645,17.201-4.271,24.33l-0.002,0.003
		c-0.454,0.891-0.954,1.786-1.497,2.669c-0.527,0.861-1.121,1.74-1.777,2.628c-3.325,4.495-7.858,8.387-13.27,9.551l-0.015,0.003
		c-0.11,0.023-0.223,0.047-0.332,0.066c-0.096,0.02-0.209,0.041-0.342,0.062c-0.567,0.097-1.15,0.162-1.746,0.195
		c-2.562,0.143-3.459-1.298-3.594-3.706c-0.069-1.255,0.113-2.746,0.318-4.416c0.482-3.939,1.104-8.997-1.607-12.091
		c-0.017,0.019-0.038,0.038-0.065,0.059c-2.862,2.305-2.264,7.584-1.791,11.766c0.23,2.027,0.433,3.831,0.249,5.221
		c-0.289,2.146-1.277,3.342-3.598,3.029c-3.908-0.523-7.358-2.327-10.285-4.987c-4.109-3.732-7.186-9.165-9.037-15.086
		C0.19,29.399-0.447,23.007,0.318,17.309c0.664-4.942,2.383-9.39,5.29-12.588L5.62,4.709C6.278,3.988,7.013,3.37,7.813,2.843
		C8.599,2.324,9.435,1.906,10.3,1.577C14.589-0.053,19.792,0.431,24.029,1.572 M33.435,4.66c-1.887,1.348-3.724,3.05-4.241,4.934
		l0.445,2.551l2.725,3.48l-3.565-1.878l-3.16,4.981l1.931,4.647l-4.625-4.956l2.477-6.511l-4.023-3.822L25.5,6.918l-0.843-1.943
		c-0.476-0.098-0.956-0.213-1.446-0.344c-3.72-1.003-8.224-1.452-11.799-0.094c-0.665,0.253-1.291,0.566-1.867,0.944
		C8.98,5.854,8.447,6.303,7.96,6.838L7.948,6.851c-2.45,2.699-3.916,6.547-4.496,10.88C2.749,22.97,3.343,28.878,5.048,34.335
		c1.691,5.412,4.469,10.346,8.144,13.685c2.472,2.247,5.353,3.765,8.576,4.196c0,0,0.016-0.12,0.043-0.319
		c0.134-0.986-0.052-2.617-0.258-4.452c-0.56-4.938-1.267-11.179,2.954-14.576c0.754-0.606,1.203-0.968,1.981-1.027
		c0.883-0.069,1.474,0.292,2.282,1.168c3.835,4.159,3.104,10.116,2.537,14.74c-0.188,1.542-0.358,2.918-0.307,3.858
		c0.027,0.454,0.095,0.731,0.263,0.722c0.468-0.025,0.936-0.08,1.4-0.158c0.072-0.013,0.159-0.029,0.266-0.049
		c0.091-0.018,0.181-0.036,0.27-0.055l0.015-0.003c4.554-0.979,8.464-4.384,11.387-8.338c0.561-0.755,1.101-1.563,1.617-2.404
		c0.504-0.816,0.96-1.638,1.374-2.446v-0.004c3.362-6.604,4.949-14.89,3.963-22.496c-0.19-1.458-0.477-2.899-0.868-4.303
		c-0.382-1.382-0.871-2.726-1.468-4.017l-0.003-0.007c-1.401-3.029-3.551-4.387-6.073-4.762c-2.77-0.412-6.046,0.266-9.354,1.27
		C33.67,4.593,33.552,4.626,33.435,4.66 M26.634,35.043c0.134-0.036,0.258-0.057,0.088-0.044
		C26.655,35.003,26.639,35.018,26.634,35.043"/>
</g>
</svg>
