<?xml version="1.0" encoding="utf-8"?>
<!-- Generator: Adobe Illustrator 16.0.0, SVG Export Plug-In . SVG Version: 6.00 Build 0)  -->
<!DOCTYPE svg PUBLIC "-//W3C//DTD SVG 1.1//EN" "http://www.w3.org/Graphics/SVG/1.1/DTD/svg11.dtd">
<svg version="1.1" id="Layer_1" xmlns="http://www.w3.org/2000/svg" xmlns:xlink="http://www.w3.org/1999/xlink" x="0px" y="0px"
	 width="60px" height="60px" viewBox="0 0 60 60" enable-background="new 0 0 60 60" xml:space="preserve">
<path fill="#2BA9E0" d="M39.402,27.15V13v-0.003h0.008c0-1.282-0.267-2.508-0.742-3.629c-0.087-0.204-0.168-0.382-0.25-0.542
	c-0.451-0.896-1.048-1.721-1.762-2.437l-0.004,0.002l-0.004-0.004c-0.25-0.249-0.502-0.474-0.746-0.673
	c-0.26-0.21-0.534-0.405-0.82-0.593c-1.456-0.937-3.186-1.477-5.04-1.477h-0.008V3.638c-1.279,0-2.506,0.266-3.625,0.742
	c-0.206,0.086-0.385,0.17-0.541,0.249c-0.896,0.448-1.717,1.049-2.435,1.764l-0.001,0.005c-0.252,0.25-0.477,0.502-0.675,0.748
	c-0.208,0.255-0.405,0.532-0.591,0.816c-0.935,1.457-1.478,3.186-1.478,5.04v14.15H39.402L39.402,27.15z M42.044,13v15.467v1.322
	h-1.318H19.364h-1.32v-1.322V13c0-2.371,0.699-4.59,1.903-6.46c0.23-0.361,0.484-0.711,0.756-1.046
	c0.283-0.351,0.57-0.676,0.86-0.963l0.004-0.004c0.898-0.903,1.953-1.666,3.125-2.252c0.246-0.125,0.475-0.232,0.686-0.319
	c1.431-0.607,3.008-0.947,4.657-0.949V1h0.008c2.373,0,4.591,0.7,6.462,1.906c0.357,0.231,0.709,0.484,1.045,0.758
	c0.351,0.283,0.673,0.568,0.963,0.858l0.006,0.005v0.005c0.903,0.903,1.667,1.957,2.251,3.121c0.122,0.244,0.228,0.472,0.317,0.682
	c0.609,1.434,0.948,3.01,0.948,4.662h0.007L42.044,13L42.044,13z"/>
<path fill="#2BA9E0" d="M42.044,46.577V31.11v-1.321h-1.318H19.364h-1.32v1.321v15.467c0,2.371,0.699,4.592,1.903,6.462
	c0.23,0.359,0.484,0.71,0.756,1.047c0.283,0.352,0.57,0.673,0.86,0.961l0.004,0.004c0.898,0.902,1.953,1.666,3.125,2.252
	c0.246,0.125,0.475,0.231,0.686,0.317c1.431,0.608,3.008,0.95,4.657,0.95v0.008h0.008c2.373,0,4.591-0.696,6.462-1.906
	c0.357-0.229,0.709-0.483,1.045-0.755c0.351-0.284,0.673-0.571,0.963-0.86l0.006-0.006v-0.009c0.903-0.899,1.667-1.954,2.251-3.118
	c0.122-0.243,0.228-0.473,0.317-0.683c0.609-1.433,0.948-3.008,0.948-4.661h0.007L42.044,46.577L42.044,46.577L42.044,46.577z
	 M22.45,32.377h2.457v12.672H22.45V32.377L22.45,32.377z"/>
<polygon fill="#2BA9E0" points="22.45,12.981 24.907,12.981 24.907,25.653 22.45,25.653 "/>
</svg>
