<?xml version="1.0" encoding="utf-8"?>
<!-- Generator: Adobe Illustrator 16.0.0, SVG Export Plug-In . SVG Version: 6.00 Build 0)  -->
<!DOCTYPE svg PUBLIC "-//W3C//DTD SVG 1.1//EN" "http://www.w3.org/Graphics/SVG/1.1/DTD/svg11.dtd">
<svg version="1.1" id="Layer_1" xmlns="http://www.w3.org/2000/svg" xmlns:xlink="http://www.w3.org/1999/xlink" x="0px" y="0px"
	 width="60px" height="60px" viewBox="0 0 60 60" enable-background="new 0 0 60 60" xml:space="preserve">
<path fill="#2BA9E0" d="M28.391,4.114c0.752,0.203,1.438,0.305,2.099,0.304c0.663-0.001,1.325-0.106,2.025-0.32
	c1.813-0.55,3.646-0.917,5.281-0.673c1.793,0.265,3.308,1.211,4.277,3.308l0.002,0.005l0,0c0.328,0.701,0.596,1.439,0.81,2.206
	c0.208,0.75,0.357,1.528,0.46,2.323c0.523,4.02-0.312,8.393-2.083,11.869v0.003c-0.183,0.355-0.396,0.646-0.605,1l-2.343,0.001
	c0.168-0.243,0.332-0.498,0.494-0.761c0.237-0.386,0.456-0.775,0.652-1.161l0.001,0c1.602-3.141,2.353-7.081,1.886-10.696
	c-0.092-0.69-0.227-1.371-0.412-2.041c-0.181-0.649-0.413-1.285-0.695-1.897h0.004L40.24,7.581c-0.637-1.371-1.6-1.985-2.734-2.153
	c-1.292-0.192-2.839,0.129-4.4,0.601c-0.896,0.274-1.743,0.407-2.615,0.408c-0.858,0.002-1.713-0.122-2.622-0.369
	c-1.752-0.47-3.866-0.686-5.531-0.053c-0.307,0.116-0.591,0.258-0.851,0.431c-0.255,0.167-0.499,0.37-0.717,0.613V7.057l-0.007,0.01
	c-1.146,1.261-1.831,3.069-2.106,5.109c-0.332,2.489-0.05,5.298,0.762,7.894c0.459,1.464,1.082,2.855,1.856,4.071h-2.293
	c-0.625-1.134-1.095-2.192-1.494-3.468c-0.895-2.864-1.207-5.983-0.831-8.765c0.326-2.431,1.176-4.621,2.612-6.201l0.006-0.009l0,0
	c0.33-0.361,0.701-0.673,1.104-0.938c0.397-0.261,0.814-0.473,1.248-0.635C23.75,3.318,26.311,3.554,28.391,4.114L28.391,4.114z"/>
<path fill="#2BA9E0" d="M25.192,8.884c-0.237-0.086-0.358-0.348-0.271-0.583c0.084-0.237,0.346-0.359,0.583-0.274l0.053,0.019
	l0.017,0.008c0.395,0.142,0.792,0.264,1.193,0.367c0.401,0.103,0.811,0.188,1.226,0.253c2.108,0.329,4.292,0.135,6.521-0.575
	c0.238-0.075,0.495,0.057,0.572,0.297s-0.057,0.494-0.296,0.571c-2.367,0.753-4.688,0.957-6.939,0.606
	c-0.438-0.068-0.875-0.16-1.314-0.271c-0.425-0.11-0.848-0.24-1.269-0.389c-0.005-0.002-0.016-0.005-0.025-0.01L25.192,8.884
	L25.192,8.884z"/>
<path fill="#2BA9E0" d="M18.809,24.125h22.386c0.179,0,0.331,0.149,0.331,0.332v4.537c0,0.183-0.152,0.331-0.331,0.331H18.809
	c-0.184,0-0.335-0.148-0.335-0.331v-4.537C18.474,24.273,18.625,24.125,18.809,24.125L18.809,24.125z"/>
<path fill="#2BA9E0" d="M23.598,31.111h12.803c0.393,0,0.755,0.321,0.712,0.711l-0.187,1.576l-13.171,5.738l-0.865-7.315
	C22.843,31.433,23.209,31.111,23.598,31.111L23.598,31.111z M36.471,37.211l-0.425,3.597L24.547,45.82l-0.383-3.239L36.471,37.211
	L36.471,37.211z M35.592,44.628l-0.424,3.59l-9.825,4.284l-0.388-3.236L35.592,44.628L35.592,44.628z M34.715,52.04l-0.626,5.28
	c-0.049,0.39-0.32,0.713-0.712,0.713h-6.752c-0.391,0-0.667-0.321-0.712-0.713l-0.166-1.374L34.715,52.04L34.715,52.04z"/>
</svg>
