<?xml version="1.0" encoding="utf-8"?>
<!-- Generator: Adobe Illustrator 16.0.0, SVG Export Plug-In . SVG Version: 6.00 Build 0)  -->
<!DOCTYPE svg PUBLIC "-//W3C//DTD SVG 1.1//EN" "http://www.w3.org/Graphics/SVG/1.1/DTD/svg11.dtd">
<svg version="1.1" id="Layer_1" xmlns="http://www.w3.org/2000/svg" xmlns:xlink="http://www.w3.org/1999/xlink" x="0px" y="0px"
	 width="60px" height="60px" viewBox="0 0 60 60" enable-background="new 0 0 60 60" xml:space="preserve">
<path fill="#2BA9E0" d="M18.856,11.811c-0.546-0.197-0.83-0.804-0.63-1.35c0.196-0.549,0.803-0.831,1.35-0.634l0.118,0.046
	l0.048,0.019c0.913,0.325,1.829,0.606,2.754,0.845c0.938,0.24,1.882,0.433,2.835,0.585c4.882,0.761,9.933,0.318,15.098-1.331
	c0.55-0.172,1.141,0.132,1.316,0.687c0.179,0.556-0.13,1.147-0.682,1.321c-5.478,1.746-10.85,2.217-16.055,1.401
	c-1.014-0.159-2.027-0.365-3.036-0.624c-0.992-0.252-1.967-0.558-2.937-0.905c-0.02-0.003-0.043-0.008-0.056-0.015L18.856,11.811
	L18.856,11.811z"/>
<path fill="#2BA9E0" d="M26.872,3.351c1.599,0.431,3.066,0.651,4.493,0.647c1.427-0.002,2.84-0.225,4.349-0.683
	c3.701-1.123,7.421-1.874,10.729-1.384c3.553,0.53,6.561,2.406,8.488,6.572l0.005,0.005l0,0c0.659,1.438,1.207,2.942,1.645,4.502
	c0.422,1.535,0.74,3.124,0.949,4.749c1.068,8.238-0.646,17.2-4.268,24.33l-0.001,0.004c-0.458,0.895-0.957,1.784-1.499,2.671
	c-0.527,0.86-1.122,1.738-1.777,2.628c-3.325,4.491-7.861,8.387-13.267,9.545l-0.021,0.009l0,0
	c-0.109,0.021-0.222,0.042-0.329,0.066c-0.098,0.016-0.21,0.041-0.339,0.061c-0.572,0.099-1.155,0.161-1.751,0.197
	c-2.557,0.138-3.455-1.305-3.591-3.706c-0.07-1.26,0.111-2.75,0.317-4.421c0.48-3.936,1.105-8.993-1.606-12.09
	c-0.019,0.016-0.04,0.04-0.066,0.059c-2.861,2.305-2.263,7.584-1.79,11.765c0.228,2.028,0.432,3.837,0.247,5.227
	c-0.289,2.145-1.278,3.341-3.597,3.026c-3.911-0.524-7.358-2.322-10.286-4.987c-4.108-3.728-7.189-9.165-9.04-15.088
	C3.033,31.183,2.395,24.788,3.162,19.09c0.661-4.942,2.382-9.389,5.291-12.591L8.463,6.49l0,0c0.659-0.721,1.394-1.339,2.194-1.866
	c0.785-0.52,1.62-0.937,2.483-1.268C17.43,1.728,22.634,2.211,26.872,3.351L26.872,3.351z M36.282,6.439
	c-1.893,1.347-3.729,3.052-4.252,4.936l0.451,2.55l2.729,3.478l-3.569-1.877l-3.161,4.983l1.929,4.646l-4.626-4.953l2.475-6.514
	l-4.019-3.822l4.099-1.169l-0.84-1.941c-0.478-0.1-0.959-0.212-1.447-0.344C22.334,5.41,17.828,4.96,14.254,6.317
	c-0.666,0.254-1.291,0.567-1.869,0.946c-0.565,0.372-1.099,0.819-1.585,1.354l0,0l-0.01,0.015C8.337,11.328,6.873,15.18,6.29,19.511
	c-0.702,5.241-0.109,11.148,1.598,16.607c1.691,5.407,4.467,10.342,8.143,13.686c2.473,2.242,5.351,3.768,8.574,4.198
	c0,0,0.019-0.126,0.045-0.319c0.134-0.992-0.052-2.622-0.26-4.454c-0.557-4.938-1.265-11.177,2.954-14.582
	c0.759-0.603,1.205-0.966,1.982-1.026c0.886-0.064,1.476,0.297,2.284,1.17c3.833,4.156,3.101,10.113,2.538,14.738
	c-0.192,1.543-0.36,2.922-0.309,3.86c0.031,0.456,0.095,0.732,0.261,0.724c0.473-0.029,0.938-0.084,1.401-0.158
	c0.079-0.012,0.16-0.033,0.269-0.049c0.092-0.014,0.176-0.039,0.269-0.057l0,0l0.012-0.002c4.554-0.975,8.465-4.385,11.387-8.333
	c0.563-0.763,1.103-1.572,1.625-2.408c0.498-0.814,0.95-1.643,1.368-2.45v-0.003c3.366-6.604,4.949-14.89,3.963-22.499
	c-0.191-1.455-0.476-2.898-0.865-4.3c-0.379-1.38-0.869-2.725-1.474-4.016l0,0l-0.001-0.01c-1.401-3.027-3.55-4.385-6.074-4.76
	c-2.764-0.411-6.042,0.267-9.35,1.268C36.514,6.374,36.396,6.408,36.282,6.439L36.282,6.439z M29.477,36.825
	c0.133-0.038,0.256-0.058,0.084-0.046C29.5,36.782,29.481,36.796,29.477,36.825L29.477,36.825z"/>
</svg>
