<?xml version="1.0" encoding="utf-8"?>
<!-- Generator: Adobe Illustrator 16.0.0, SVG Export Plug-In . SVG Version: 6.00 Build 0)  -->
<!DOCTYPE svg PUBLIC "-//W3C//DTD SVG 1.1//EN" "http://www.w3.org/Graphics/SVG/1.1/DTD/svg11.dtd">
<svg version="1.1" id="Layer_1" xmlns="http://www.w3.org/2000/svg" xmlns:xlink="http://www.w3.org/1999/xlink" x="0px" y="0px"
	 width="60px" height="60px" viewBox="0 0 60 60" enable-background="new 0 0 60 60" xml:space="preserve">
<path fill="#2BA9E0" d="M23.318,7.762c1.409,0.38,2.702,0.574,3.959,0.572c1.252-0.003,2.501-0.201,3.829-0.604
	c3.264-0.989,6.539-1.649,9.458-1.216c3.123,0.465,5.776,2.117,7.472,5.787l0.006,0.007l0,0c0.583,1.263,1.06,2.591,1.442,3.965
	c0.302,1.074,0.541,2.179,0.711,3.3c2.903,0.741,5.059,3.378,5.059,6.509c0,3.286-2.363,6.028-5.484,6.61
	c-0.683,3.252-1.774,6.387-3.204,9.199h-0.002c-0.399,0.785-0.842,1.574-1.32,2.354c-0.464,0.756-0.986,1.536-1.56,2.314
	c-2.938,3.96-6.931,7.389-11.699,8.411l-0.008,0.005l0,0c-0.102,0.021-0.2,0.041-0.296,0.06c-0.082,0.015-0.191,0.033-0.301,0.051
	c-0.5,0.087-1.015,0.146-1.538,0.175c-2.258,0.126-3.048-1.143-3.166-3.264c-0.063-1.105,0.097-2.418,0.279-3.893
	c0.426-3.469,0.97-7.926-1.416-10.65c-0.017,0.017-0.034,0.03-0.057,0.051c-2.522,2.029-1.994,6.684-1.58,10.361
	c0.204,1.791,0.383,3.383,0.219,4.601c-0.252,1.894-1.122,2.944-3.17,2.671c-3.441-0.461-6.479-2.048-9.059-4.394
	c-3.618-3.288-6.331-8.076-7.96-13.29C2.316,32.277,1.755,26.65,2.431,21.626c0.583-4.354,2.1-8.271,4.659-11.089l0.011-0.012
	v-0.001c0.578-0.634,1.226-1.177,1.93-1.641c0.695-0.458,1.43-0.826,2.19-1.116C15.002,6.33,19.585,6.756,23.318,7.762L23.318,7.762
	z M50.195,19.572c-0.039-0.009-0.081-0.021-0.118-0.028C50.114,19.552,50.156,19.563,50.195,19.572L50.195,19.572z M50.036,19.537
	c-0.208-0.049-0.427-0.091-0.65-0.121C49.609,19.446,49.828,19.488,50.036,19.537L50.036,19.537z M49.379,19.415
	c-0.277-0.032-0.555-0.052-0.845-0.052c-0.057,0-0.115,0.001-0.17,0.007c0.055-0.005,0.113-0.007,0.17-0.007
	C48.824,19.363,49.102,19.383,49.379,19.415L49.379,19.415z M48.358,19.37c-0.285,0.006-0.566,0.029-0.843,0.07
	C47.792,19.399,48.073,19.376,48.358,19.37L48.358,19.37z M47.503,19.444c-0.046,0.007-0.097,0.014-0.145,0.021
	C47.406,19.458,47.457,19.45,47.503,19.444L47.503,19.444z M47.356,19.465c-0.146-0.825-0.333-1.645-0.554-2.453
	c-0.335-1.216-0.768-2.397-1.294-3.537l0,0l-0.005-0.006c-1.23-2.669-3.128-3.866-5.349-4.196c-2.433-0.363-5.327,0.234-8.24,1.118
	c-1.596,0.483-3.106,0.721-4.64,0.724c-1.528,0.004-3.052-0.22-4.68-0.658c-3.275-0.884-7.245-1.278-10.392-0.082
	c-0.584,0.223-1.137,0.498-1.646,0.831c-0.497,0.328-0.965,0.724-1.396,1.197l0,0l-0.01,0.01c-2.16,2.376-3.45,5.769-3.961,9.589
	c-0.62,4.614-0.097,9.82,1.405,14.625c1.491,4.767,3.937,9.11,7.175,12.053c2.177,1.981,4.717,3.319,7.556,3.7
	c0,0,0.016-0.104,0.037-0.28c0.118-0.87-0.044-2.309-0.226-3.921c-0.493-4.354-1.117-9.85,2.602-12.843
	c0.666-0.538,1.063-0.856,1.746-0.907c0.778-0.06,1.298,0.257,2.009,1.029c3.378,3.662,2.736,8.912,2.237,12.988
	c-0.168,1.356-0.32,2.57-0.27,3.398c0.02,0.396,0.081,0.646,0.225,0.635c0.417-0.025,0.826-0.07,1.238-0.139
	c0.066-0.011,0.135-0.028,0.237-0.047c0.074-0.01,0.159-0.03,0.233-0.048l0,0l0.016-0.004c4.014-0.859,7.456-3.861,10.033-7.338
	c0.492-0.669,0.966-1.38,1.422-2.126c0.44-0.717,0.845-1.44,1.206-2.152l0,0c1.255-2.461,2.227-5.184,2.865-8.013
	c-2.938-0.715-5.123-3.367-5.123-6.531C41.815,22.773,44.208,20.021,47.356,19.465L47.356,19.465z M48.212,32.798
	c0.047,0.003,0.092,0.003,0.14,0.003C48.304,32.801,48.259,32.801,48.212,32.798L48.212,32.798z M48.363,32.803
	c0.056,0.004,0.114,0.004,0.171,0.004c0.055,0,0.109,0,0.164-0.004c-0.055,0.004-0.109,0.004-0.164,0.004
	C48.478,32.807,48.419,32.807,48.363,32.803L48.363,32.803z M48.534,21.248c-2.668,0-4.842,2.168-4.842,4.834
	c0,2.674,2.174,4.84,4.842,4.84s4.834-2.166,4.834-4.84C53.368,23.415,51.202,21.248,48.534,21.248L48.534,21.248z M25.613,37.251
	c0.118-0.032,0.228-0.054,0.079-0.042C25.631,37.213,25.616,37.229,25.613,37.251L25.613,37.251z"/>
<path fill="#2BA9E0" d="M16.578,15.182c-0.48-0.176-0.729-0.707-0.554-1.189c0.173-0.483,0.706-0.731,1.189-0.556l0.104,0.038
	l0.042,0.015c0.804,0.287,1.613,0.537,2.425,0.747c0.826,0.211,1.66,0.383,2.5,0.512c4.298,0.668,8.745,0.281,13.298-1.168
	c0.489-0.156,1.004,0.114,1.16,0.602c0.163,0.491-0.11,1.011-0.601,1.165C31.313,16.886,26.582,17.3,22,16.586
	c-0.896-0.143-1.789-0.325-2.677-0.552c-0.871-0.229-1.734-0.489-2.587-0.797c-0.019-0.005-0.035-0.011-0.052-0.015L16.578,15.182
	L16.578,15.182z"/>
<path fill="#2BA9E0" d="M52.07,18.322v-0.419l1.954-2.241c-0.223,0.009-0.416,0.015-0.587,0.015h-1.251v-0.423h2.504v0.349
	l-1.654,1.944l-0.325,0.356c0.234-0.021,0.453-0.028,0.657-0.028h1.418v0.446L52.07,18.322L52.07,18.322z"/>
<path fill="#2BA9E0" d="M46.504,27.933v-0.6l2.766-3.179c-0.31,0.014-0.589,0.021-0.828,0.021h-1.773v-0.591h3.556v0.48
	l-2.357,2.766l-0.456,0.504c0.329-0.024,0.648-0.033,0.93-0.033h2.017v0.633H46.504L46.504,27.933z"/>
<path fill="#2BA9E0" d="M56.271,13.722v-0.291l1.355-1.55c-0.157,0.007-0.294,0.009-0.409,0.009h-0.865v-0.289h1.733v0.237
	l-1.148,1.347l-0.224,0.246c0.159-0.011,0.313-0.018,0.455-0.018h0.981v0.309H56.271L56.271,13.722z"/>
</svg>
