<?xml version="1.0" encoding="utf-8"?>
<!-- Generator: Adobe Illustrator 16.0.0, SVG Export Plug-In . SVG Version: 6.00 Build 0)  -->
<!DOCTYPE svg PUBLIC "-//W3C//DTD SVG 1.1//EN" "http://www.w3.org/Graphics/SVG/1.1/DTD/svg11.dtd">
<svg version="1.1" id="Layer_1" xmlns="http://www.w3.org/2000/svg" xmlns:xlink="http://www.w3.org/1999/xlink" x="0px" y="0px"
	 width="60px" height="60px" viewBox="0 0 60 60" enable-background="new 0 0 60 60" xml:space="preserve">
<path fill="#2BA9E0" d="M23.971,11.74c1.412,0.381,2.709,0.577,3.971,0.574c1.256-0.003,2.506-0.202,3.837-0.605
	c3.268-0.992,6.551-1.653,9.474-1.221c3.136,0.468,5.792,2.123,7.492,5.801l0.006,0.004l0,0c0.586,1.267,1.066,2.598,1.449,3.974
	c0.376,1.356,0.656,2.759,0.842,4.192c0.944,7.276-0.568,15.186-3.773,21.481v0.003c-0.401,0.784-0.842,1.578-1.319,2.356
	c-0.469,0.761-0.99,1.537-1.57,2.32c-2.938,3.97-6.938,7.405-11.715,8.435l-0.012,0.002l0,0c-0.1,0.02-0.199,0.041-0.297,0.061
	c-0.082,0.013-0.184,0.035-0.3,0.053c-0.499,0.085-1.017,0.14-1.541,0.172c-2.262,0.123-3.057-1.146-3.172-3.273
	c-0.06-1.107,0.1-2.422,0.276-3.897C28.05,48.692,28.599,44.23,26.2,41.5c-0.011,0.012-0.03,0.029-0.056,0.051
	c-2.522,2.033-1.998,6.694-1.583,10.385c0.208,1.789,0.383,3.38,0.218,4.61c-0.25,1.895-1.122,2.949-3.176,2.675
	c-3.445-0.465-6.492-2.056-9.079-4.406C8.899,51.523,6.181,46.724,4.546,41.5c-1.62-5.189-2.183-10.833-1.504-15.864
	c0.584-4.363,2.102-8.291,4.67-11.115l0.007-0.012l0,0c0.583-0.635,1.232-1.181,1.937-1.646c0.696-0.458,1.432-0.83,2.197-1.118
	C15.639,10.306,20.233,10.734,23.971,11.74L23.971,11.74z M27.942,15.102c-1.531,0.005-3.061-0.221-4.696-0.66
	c-3.283-0.885-7.257-1.282-10.41-0.083c-0.588,0.223-1.142,0.499-1.653,0.834c-0.497,0.328-0.965,0.725-1.397,1.197l0,0
	l-0.011,0.012c-2.165,2.383-3.458,5.78-3.972,9.606c-0.618,4.626-0.095,9.839,1.412,14.656c1.489,4.782,3.942,9.137,7.19,12.087
	c2.181,1.984,4.727,3.321,7.572,3.702c0.002,0,0.01-0.107,0.038-0.281c0.118-0.87-0.046-2.309-0.23-3.929
	c-0.494-4.366-1.116-9.868,2.608-12.869c0.667-0.536,1.064-0.857,1.747-0.908c0.783-0.062,1.308,0.256,2.021,1.03
	c3.382,3.672,2.736,8.928,2.238,13.014c-0.165,1.361-0.319,2.577-0.27,3.404c0.019,0.407,0.08,0.646,0.225,0.641
	c0.422-0.021,0.829-0.069,1.238-0.144c0.064-0.011,0.143-0.022,0.229-0.04c0.088-0.017,0.163-0.031,0.248-0.048l0,0l0.012-0.002
	c4.019-0.866,7.472-3.872,10.053-7.364c0.493-0.666,0.971-1.378,1.43-2.123c0.442-0.721,0.846-1.443,1.208-2.157l0.002-0.002
	c2.966-5.834,4.369-13.153,3.498-19.864c-0.168-1.288-0.424-2.56-0.766-3.799c-0.34-1.219-0.768-2.406-1.298-3.546l0,0l-0.001-0.006
	c-1.237-2.674-3.136-3.875-5.365-4.205c-2.441-0.364-5.333,0.235-8.256,1.121C30.991,14.86,29.474,15.097,27.942,15.102
	L27.942,15.102z M26.272,41.294c0.117-0.038,0.227-0.052,0.079-0.042C26.293,41.256,26.277,41.267,26.272,41.294L26.272,41.294z"/>
<path fill="#2BA9E0" d="M17.221,19.177c-0.488-0.175-0.736-0.709-0.559-1.191c0.177-0.484,0.707-0.734,1.19-0.558l0.106,0.04
	l0.036,0.015c0.814,0.288,1.623,0.538,2.435,0.746c0.829,0.212,1.663,0.384,2.507,0.516c4.304,0.675,8.763,0.282,13.326-1.171
	c0.487-0.155,1.009,0.115,1.166,0.605c0.154,0.489-0.117,1.012-0.606,1.165c-4.839,1.542-9.579,1.958-14.171,1.238
	c-0.894-0.14-1.792-0.325-2.682-0.553c-0.873-0.225-1.735-0.489-2.593-0.796c-0.017-0.005-0.037-0.01-0.048-0.015L17.221,19.177
	L17.221,19.177z"/>
<polygon fill="#2BA9E0" points="50.931,2.253 52.517,8.509 58.76,9.769 52.513,11.681 50.932,17.153 49.361,11.712 43.1,9.671 
	49.349,8.495 "/>
<polygon fill="#2BA9E0" points="43.515,1.482 44.193,4.153 46.856,4.693 44.191,5.508 43.515,7.845 42.848,5.521 40.175,4.649 
	42.841,4.148 "/>
</svg>
