<?xml version="1.0" encoding="utf-8"?>
<!-- Generator: Adobe Illustrator 16.0.0, SVG Export Plug-In . SVG Version: 6.00 Build 0)  -->
<!DOCTYPE svg PUBLIC "-//W3C//DTD SVG 1.1//EN" "http://www.w3.org/Graphics/SVG/1.1/DTD/svg11.dtd">
<svg version="1.1" id="Layer_1" xmlns="http://www.w3.org/2000/svg" xmlns:xlink="http://www.w3.org/1999/xlink" x="0px" y="0px"
	 width="60px" height="60px" viewBox="0 0 60 60" enable-background="new 0 0 60 60" xml:space="preserve">
<path fill="#55BE8E" d="M18.35,11.491c-0.558-0.203-0.846-0.817-0.644-1.376c0.202-0.556,0.817-0.844,1.375-0.642l0.122,0.044
	l0.048,0.017c0.929,0.334,1.864,0.621,2.801,0.861c0.954,0.246,1.919,0.444,2.891,0.595c4.969,0.778,10.108,0.323,15.366-1.35
	c0.563-0.18,1.165,0.132,1.347,0.697c0.178,0.563-0.139,1.166-0.7,1.345c-5.576,1.775-11.043,2.254-16.34,1.428
	c-1.037-0.163-2.068-0.376-3.091-0.638c-1.008-0.259-2.004-0.565-2.993-0.918c-0.019-0.005-0.04-0.013-0.059-0.02L18.35,11.491
	L18.35,11.491z"/>
<path fill="#55BE8E" d="M48.686,16.183c1.461,0,2.647,1.185,2.647,2.646s-1.186,2.647-2.647,2.647c-1.46,0-2.648-1.186-2.648-2.647
	C46.037,17.368,47.226,16.183,48.686,16.183L48.686,16.183z"/>
<path fill="#55BE8E" d="M48.841,24.598c0.898,0,1.623,0.728,1.623,1.624c0,0.895-0.725,1.622-1.623,1.622
	c-0.894,0-1.62-0.727-1.62-1.622C47.221,25.325,47.947,24.598,48.841,24.598L48.841,24.598z"/>
<path fill="#55BE8E" d="M24.423,4.892c8.494,0,16.674-3.735,24.202-1.091c2.013,1.119,3.979,2.066,4.81,5.456
	c-2.044,1.769-3.811,3.706-6.683,3.494c-7.153-0.531-14.369-0.88-21.555-1.32C21.773,11.223,22.384,5.148,24.423,4.892L24.423,4.892
	z"/>
<path fill="#55BE8E" d="M26.506,2.878c1.631,0.439,3.121,0.665,4.577,0.661c1.446-0.004,2.891-0.233,4.427-0.698
	c3.767-1.143,7.556-1.908,10.923-1.407c3.616,0.538,6.679,2.447,8.64,6.691l0.006,0.007l0,0c0.676,1.46,1.231,2.994,1.672,4.582
	c0.437,1.563,0.758,3.182,0.971,4.834c1.09,8.389-0.656,17.514-4.349,24.771l-0.003,0.005c-0.46,0.905-0.972,1.818-1.521,2.718
	c-0.541,0.876-1.143,1.772-1.813,2.674c-3.386,4.58-7.997,8.538-13.51,9.727l-0.014,0.003l0,0c-0.114,0.023-0.226,0.047-0.338,0.064
	c-0.097,0.022-0.214,0.043-0.349,0.065c-0.576,0.098-1.17,0.166-1.778,0.198c-2.607,0.146-3.521-1.32-3.658-3.773
	c-0.07-1.276,0.115-2.793,0.322-4.493c0.493-4.013,1.126-9.161-1.635-12.311c-0.018,0.016-0.041,0.038-0.065,0.061
	c-2.915,2.345-2.308,7.721-1.827,11.977c0.236,2.066,0.444,3.901,0.253,5.313c-0.293,2.188-1.297,3.402-3.665,3.086
	c-3.976-0.533-7.489-2.369-10.47-5.077c-4.182-3.801-7.315-9.331-9.2-15.358c-1.87-5.984-2.517-12.492-1.739-18.293
	C3.04,13.871,4.792,9.343,7.75,6.087l0.013-0.013v0c0.668-0.732,1.418-1.362,2.231-1.899c0.805-0.531,1.656-0.957,2.536-1.291
	C16.896,1.223,22.194,1.715,26.506,2.878L26.506,2.878z M31.083,6.753c-1.767,0.005-3.529-0.254-5.409-0.761
	c-3.786-1.02-8.374-1.477-12.011-0.095c-0.678,0.257-1.316,0.576-1.902,0.962c-0.575,0.378-1.116,0.837-1.614,1.382l0,0
	l-0.011,0.012C7.64,11.002,6.149,14.92,5.558,19.331C4.842,24.664,5.447,30.68,7.182,36.234c1.722,5.514,4.55,10.536,8.292,13.938
	c2.517,2.285,5.448,3.828,8.73,4.27c0,0,0.019-0.12,0.046-0.325c0.134-1.001-0.054-2.663-0.265-4.531
	c-0.57-5.028-1.287-11.382,3.007-14.837c0.77-0.621,1.229-0.986,2.018-1.051c0.901-0.066,1.502,0.298,2.322,1.191
	c3.906,4.234,3.162,10.299,2.582,15.007c-0.188,1.569-0.361,2.969-0.309,3.929c0.023,0.459,0.096,0.744,0.266,0.73
	c0.475-0.022,0.952-0.077,1.427-0.16c0.072-0.013,0.163-0.026,0.269-0.049c0.092-0.018,0.187-0.037,0.277-0.056l0,0l0.018-0.005
	c4.633-0.996,8.611-4.461,11.59-8.487c0.57-0.769,1.12-1.589,1.645-2.445c0.514-0.836,0.98-1.669,1.401-2.492v-0.006
	c3.419-6.724,5.038-15.161,4.033-22.905c-0.193-1.484-0.484-2.951-0.884-4.38c-0.39-1.407-0.888-2.776-1.491-4.09l0,0L52.15,9.473
	c-1.426-3.085-3.614-4.468-6.182-4.85c-2.823-0.419-6.159,0.272-9.526,1.293C34.603,6.476,32.856,6.75,31.083,6.753L31.083,6.753z
	 M29.159,36.955c0.138-0.037,0.265-0.06,0.091-0.043C29.18,36.918,29.165,36.932,29.159,36.955L29.159,36.955z"/>
<path fill="#55BE8E" d="M45.077,7.734c0.242,0,0.438,0.197,0.438,0.438c0,0.242-0.196,0.439-0.438,0.439
	c-0.243,0-0.44-0.197-0.44-0.439S44.834,7.734,45.077,7.734L45.077,7.734z"/>
</svg>
