<?xml version="1.0" encoding="utf-8"?>
<!-- Generator: Adobe Illustrator 16.0.0, SVG Export Plug-In . SVG Version: 6.00 Build 0)  -->
<!DOCTYPE svg PUBLIC "-//W3C//DTD SVG 1.1//EN" "http://www.w3.org/Graphics/SVG/1.1/DTD/svg11.dtd">
<svg version="1.1" id="Layer_1" xmlns="http://www.w3.org/2000/svg" xmlns:xlink="http://www.w3.org/1999/xlink" x="0px" y="0px"
	 width="60px" height="60px" viewBox="0 0 60 60" enable-background="new 0 0 60 60" xml:space="preserve">
<path fill="#55BE8E" d="M26.526,4.354c1.601,0.433,3.067,0.653,4.496,0.65C32.444,5,33.861,4.776,35.37,4.319
	c3.7-1.123,7.42-1.874,10.729-1.383c3.554,0.529,6.562,2.404,8.489,6.572l0.002,0.006l0,0c0.664,1.435,1.209,2.942,1.643,4.5
	c0.426,1.536,0.743,3.125,0.953,4.748c1.069,8.239-0.643,17.201-4.271,24.331l-0.002,0.003c-0.451,0.892-0.951,1.786-1.496,2.67
	c-0.527,0.86-1.119,1.74-1.777,2.626c-3.326,4.496-7.857,8.388-13.27,9.553l-0.015,0.002v0.001c-0.11,0.023-0.222,0.046-0.332,0.067
	c-0.096,0.018-0.21,0.038-0.341,0.061c-0.568,0.096-1.152,0.162-1.748,0.195c-2.561,0.143-3.457-1.298-3.591-3.707
	c-0.07-1.254,0.113-2.744,0.317-4.415c0.483-3.939,1.103-8.997-1.609-12.091c-0.016,0.02-0.038,0.037-0.062,0.059
	c-2.862,2.305-2.265,7.585-1.792,11.766c0.23,2.028,0.434,3.83,0.247,5.221c-0.288,2.146-1.274,3.342-3.598,3.03
	c-3.906-0.524-7.355-2.328-10.286-4.988C9.454,49.414,6.375,43.98,4.525,38.06c-1.836-5.877-2.472-12.269-1.707-17.966
	c0.663-4.942,2.382-9.39,5.288-12.588l0.013-0.014l0,0c0.656-0.72,1.392-1.337,2.192-1.864c0.788-0.52,1.622-0.937,2.487-1.267
	C17.088,2.73,22.292,3.213,26.526,4.354L26.526,4.354z M31.021,8.162c-1.735,0.004-3.466-0.25-5.312-0.748
	c-3.719-1.002-8.224-1.451-11.797-0.093c-0.666,0.253-1.292,0.566-1.868,0.944c-0.565,0.374-1.097,0.822-1.585,1.358v0l-0.011,0.012
	c-2.452,2.7-3.916,6.548-4.498,10.88c-0.702,5.239-0.108,11.148,1.598,16.605c1.691,5.412,4.468,10.346,8.144,13.686
	c2.472,2.245,5.351,3.764,8.576,4.195c0.001,0,0.018-0.12,0.044-0.318c0.131-0.987-0.053-2.617-0.261-4.452
	c-0.559-4.938-1.265-11.18,2.957-14.577c0.754-0.607,1.204-0.968,1.979-1.027c0.884-0.068,1.475,0.291,2.283,1.167
	c3.834,4.16,3.104,10.117,2.536,14.741c-0.188,1.542-0.357,2.92-0.305,3.859c0.025,0.453,0.094,0.73,0.261,0.722
	c0.468-0.026,0.935-0.079,1.401-0.159c0.07-0.012,0.16-0.027,0.266-0.049c0.09-0.017,0.181-0.035,0.27-0.055l0,0l0.017-0.003
	c4.552-0.979,8.462-4.385,11.387-8.338c0.559-0.755,1.101-1.563,1.616-2.403c0.502-0.817,0.961-1.639,1.373-2.447l0.002-0.004
	c3.359-6.604,4.947-14.89,3.961-22.496c-0.189-1.458-0.477-2.899-0.867-4.303c-0.384-1.382-0.872-2.726-1.469-4.017l0,0
	l-0.002-0.008c-1.402-3.03-3.551-4.387-6.074-4.762c-2.768-0.411-6.047,0.266-9.355,1.27C34.479,7.889,32.762,8.157,31.021,8.162
	L31.021,8.162z M29.133,37.827c0.133-0.036,0.257-0.057,0.088-0.044C29.155,37.787,29.136,37.802,29.133,37.827L29.133,37.827z"/>
<path fill="#55BE8E" d="M18.877,12.776c-0.547-0.198-0.83-0.802-0.631-1.35c0.199-0.548,0.803-0.831,1.35-0.632l0.12,0.043
	l0.045,0.017c0.914,0.327,1.831,0.609,2.752,0.846c0.938,0.242,1.885,0.436,2.839,0.585c4.879,0.763,9.928,0.317,15.092-1.327
	c0.555-0.176,1.146,0.131,1.322,0.685c0.174,0.553-0.133,1.146-0.686,1.321c-5.479,1.745-10.849,2.215-16.051,1.402
	c-1.017-0.159-2.029-0.368-3.036-0.625c-0.991-0.255-1.969-0.556-2.939-0.902c-0.019-0.006-0.039-0.013-0.057-0.02L18.877,12.776
	L18.877,12.776z"/>
<path fill="#55BE8E" d="M5.283,28.297c1.034,0.372,1.923,0.817,2.746,1.23c2.066,1.034,3.638,1.821,5.864-0.231
	c0.83-0.766,1.745-1.041,2.643-0.97c0.54,0.043,1.062,0.217,1.547,0.487c0.456,0.254,0.875,0.596,1.238,0.988
	c0.542,0.588,0.972,1.315,1.224,2.076c2.049-0.889,2.875,0.144,3.819,1.324l0.001,0.001l0.002-0.001
	c0.129,0.16,0.263,0.327,0.364,0.439h0.001l0.04,0.043c0.615,0.632,2.225,0.897,3.9,0.854c1.722-0.046,3.417-0.422,4.136-1.066
	l0.002-0.002l-0.002-0.003c0.028-0.024,0.02-0.016,0.026-0.021c1.638-1.566,3.166-1.811,4.56-1.352
	c1.271,0.416,2.322,1.426,3.216,2.503c0.037,0.003,0.01-0.144,0.144-0.233c0.423-0.285,0.902-0.781,1.367-1.339
	c0.99-1.188,1.859-2.595,2.082-2.992c0.281-0.508,0.924-0.691,1.432-0.409c0.091,0.051,0.172,0.113,0.241,0.185
	c0.71,0.705,1.388,1.29,1.946,1.242c0.629-0.054,1.4-0.814,2.438-2.853c0.172-0.337,0.5-0.542,0.851-0.574l0,0l3.517-0.308
	l0.182,2.105l-2.942,0.258c-1.331,2.421-2.606,3.368-3.86,3.477c-1,0.087-1.854-0.339-2.656-0.98
	c-0.428,0.649-0.998,1.461-1.609,2.196c-0.58,0.695-1.208,1.335-1.814,1.743c-0.881,0.594-1.76,0.761-2.553,0.192
	c-0.139-0.098-0.265-0.216-0.377-0.351c-0.686-0.828-1.453-1.593-2.254-1.856c-0.682-0.225-1.488-0.051-2.454,0.873l-0.076,0.072
	l-0.002-0.002c-1.096,0.98-3.325,1.544-5.489,1.601c-2.183,0.056-4.394-0.408-5.456-1.483c-0.013-0.013-0.026-0.025-0.038-0.039
	l-0.04-0.043l0.001-0.003l-0.015-0.014c-0.192-0.216-0.328-0.384-0.458-0.549l0.002-0.001c-0.473-0.594-0.879-1.1-2.353-0.131
	c-0.2,0.152-0.454,0.233-0.722,0.213c-0.582-0.045-1.015-0.555-0.97-1.135c0.058-0.736-0.319-1.594-0.905-2.229
	c-0.218-0.236-0.459-0.435-0.711-0.575c-0.223-0.125-0.457-0.204-0.687-0.223c-0.336-0.027-0.696,0.091-1.049,0.417
	c-3.292,3.035-5.426,1.966-8.233,0.561c-0.769-0.386-1.6-0.801-2.514-1.13L5.283,28.297L5.283,28.297z M40.596,34.589
	C40.591,34.586,40.59,34.586,40.596,34.589L40.596,34.589L40.596,34.589z"/>
<path fill-rule="evenodd" clip-rule="evenodd" fill="#55BE8E" d="M17.76,45.083c0.772,0,1.399,0.627,1.399,1.398
	c0,0.772-0.627,1.399-1.399,1.399c-0.773,0-1.399-0.627-1.399-1.399C16.361,45.71,16.987,45.083,17.76,45.083L17.76,45.083z"/>
<path fill-rule="evenodd" clip-rule="evenodd" fill="#55BE8E" d="M19.441,39.837c0.688,0,1.247,0.56,1.247,1.249
	s-0.559,1.248-1.247,1.248c-0.69,0-1.249-0.559-1.249-1.248S18.751,39.837,19.441,39.837L19.441,39.837z"/>
<path fill-rule="evenodd" clip-rule="evenodd" fill="#55BE8E" d="M43.519,42.676c0.73,0,1.323,0.593,1.323,1.322
	c0,0.73-0.593,1.322-1.323,1.322c-0.729,0-1.321-0.592-1.321-1.322C42.197,43.269,42.789,42.676,43.519,42.676L43.519,42.676z"/>
<path fill-rule="evenodd" clip-rule="evenodd" fill="#55BE8E" d="M46.073,38.15c0.728,0,1.318,0.59,1.318,1.318
	c0,0.728-0.591,1.318-1.318,1.318s-1.318-0.591-1.318-1.318C44.755,38.74,45.346,38.15,46.073,38.15L46.073,38.15z"/>
<path fill-rule="evenodd" clip-rule="evenodd" fill="#55BE8E" d="M15.011,36.026c1.337,0,2.419,1.083,2.419,2.419
	c0,1.335-1.083,2.418-2.419,2.418c-1.335,0-2.417-1.083-2.417-2.418C12.593,37.109,13.676,36.026,15.011,36.026L15.011,36.026z
	 M15.011,36.877c0.867,0,1.568,0.701,1.568,1.568c0,0.865-0.701,1.568-1.568,1.568c-0.866,0-1.568-0.703-1.568-1.568
	C13.443,37.578,14.146,36.877,15.011,36.877L15.011,36.877z"/>
<path fill="#55BE8E" d="M26.526,4.354c1.601,0.433,3.067,0.653,4.496,0.65C32.444,5,33.861,4.776,35.37,4.319
	c3.7-1.123,7.42-1.874,10.729-1.383c3.554,0.529,6.562,2.404,8.489,6.572l0.002,0.006l0,0c0.664,1.435,1.209,2.942,1.643,4.5
	c0.426,1.536,0.743,3.125,0.953,4.748c1.069,8.239-0.643,17.201-4.271,24.331l-0.002,0.003c-0.451,0.892-0.951,1.786-1.496,2.67
	c-0.527,0.86-1.119,1.74-1.777,2.626c-3.326,4.496-7.857,8.388-13.27,9.553l-0.015,0.002v0.001c-0.11,0.023-0.222,0.046-0.332,0.067
	c-0.096,0.018-0.21,0.038-0.341,0.061c-0.568,0.096-1.152,0.162-1.748,0.195c-2.561,0.143-3.457-1.298-3.591-3.707
	c-0.07-1.254,0.113-2.744,0.317-4.415c0.483-3.939,1.103-8.997-1.609-12.091c-0.016,0.02-0.038,0.037-0.062,0.059
	c-2.862,2.305-2.265,7.585-1.792,11.766c0.23,2.028,0.434,3.83,0.247,5.221c-0.288,2.146-1.274,3.342-3.598,3.03
	c-3.906-0.524-7.355-2.328-10.286-4.988C9.454,49.414,6.375,43.98,4.525,38.06c-1.836-5.877-2.472-12.269-1.707-17.966
	c0.663-4.942,2.382-9.39,5.288-12.588l0.013-0.014l0,0c0.656-0.72,1.392-1.337,2.192-1.864c0.788-0.52,1.622-0.937,2.487-1.267
	C17.088,2.73,22.292,3.213,26.526,4.354L26.526,4.354z M31.021,8.162c-1.735,0.004-3.466-0.25-5.312-0.748
	c-3.719-1.002-8.224-1.451-11.797-0.093c-0.666,0.253-1.292,0.566-1.868,0.944c-0.565,0.374-1.097,0.822-1.585,1.358v0l-0.011,0.012
	c-2.452,2.7-3.916,6.548-4.498,10.88c-0.702,5.239-0.108,11.148,1.598,16.605c1.691,5.412,4.468,10.346,8.144,13.686
	c2.472,2.245,5.351,3.764,8.576,4.195c0.001,0,0.018-0.12,0.044-0.318c0.131-0.987-0.053-2.617-0.261-4.452
	c-0.559-4.938-1.265-11.18,2.957-14.577c0.754-0.607,1.204-0.968,1.979-1.027c0.884-0.068,1.475,0.291,2.283,1.167
	c3.834,4.16,3.104,10.117,2.536,14.741c-0.188,1.542-0.357,2.92-0.305,3.859c0.025,0.453,0.094,0.73,0.261,0.722
	c0.468-0.026,0.935-0.079,1.401-0.159c0.07-0.012,0.16-0.027,0.266-0.049c0.09-0.017,0.181-0.035,0.27-0.055l0,0l0.017-0.003
	c4.552-0.979,8.462-4.385,11.387-8.338c0.559-0.755,1.101-1.563,1.616-2.403c0.502-0.817,0.961-1.639,1.373-2.447l0.002-0.004
	c3.359-6.604,4.947-14.89,3.961-22.496c-0.189-1.458-0.477-2.899-0.867-4.303c-0.384-1.382-0.872-2.726-1.469-4.017l0,0
	l-0.002-0.008c-1.402-3.03-3.551-4.387-6.074-4.762c-2.768-0.411-6.047,0.266-9.355,1.27C34.479,7.889,32.762,8.157,31.021,8.162
	L31.021,8.162z M29.133,37.827c0.133-0.036,0.257-0.057,0.088-0.044C29.155,37.787,29.136,37.802,29.133,37.827L29.133,37.827z"/>
<path fill="#55BE8E" d="M18.877,12.776c-0.547-0.198-0.83-0.802-0.631-1.35c0.199-0.548,0.803-0.831,1.35-0.632l0.12,0.043
	l0.045,0.017c0.914,0.327,1.831,0.609,2.752,0.846c0.938,0.242,1.885,0.436,2.839,0.585c4.879,0.763,9.928,0.317,15.092-1.327
	c0.555-0.176,1.146,0.131,1.322,0.685c0.174,0.553-0.133,1.146-0.686,1.321c-5.479,1.745-10.849,2.215-16.051,1.402
	c-1.017-0.159-2.029-0.368-3.036-0.625c-0.991-0.255-1.969-0.556-2.939-0.902c-0.019-0.006-0.039-0.013-0.057-0.02L18.877,12.776
	L18.877,12.776z"/>
<path fill="#55BE8E" d="M5.283,28.297c1.034,0.372,1.923,0.817,2.746,1.23c2.066,1.034,3.638,1.821,5.864-0.231
	c0.83-0.766,1.745-1.041,2.643-0.97c0.54,0.043,1.062,0.217,1.547,0.487c0.456,0.254,0.875,0.596,1.238,0.988
	c0.542,0.588,0.972,1.315,1.224,2.076c2.049-0.889,2.875,0.144,3.819,1.324l0.001,0.001l0.002-0.001
	c0.129,0.16,0.263,0.327,0.364,0.439h0.001l0.04,0.043c0.615,0.632,2.225,0.897,3.9,0.854c1.722-0.046,3.417-0.422,4.136-1.066
	l0.002-0.002l-0.002-0.003c0.028-0.024,0.02-0.016,0.026-0.021c1.638-1.566,3.166-1.811,4.56-1.352
	c1.271,0.416,2.322,1.426,3.216,2.503c0.037,0.003,0.01-0.144,0.144-0.233c0.423-0.285,0.902-0.781,1.367-1.339
	c0.99-1.188,1.859-2.595,2.082-2.992c0.281-0.508,0.924-0.691,1.432-0.409c0.091,0.051,0.172,0.113,0.241,0.185
	c0.71,0.705,1.388,1.29,1.946,1.242c0.629-0.054,1.4-0.814,2.438-2.853c0.172-0.337,0.5-0.542,0.851-0.574l0,0l3.517-0.308
	l0.182,2.105l-2.942,0.258c-1.331,2.421-2.606,3.368-3.86,3.477c-1,0.087-1.854-0.339-2.656-0.98
	c-0.428,0.649-0.998,1.461-1.609,2.196c-0.58,0.695-1.208,1.335-1.814,1.743c-0.881,0.594-1.76,0.761-2.553,0.192
	c-0.139-0.098-0.265-0.216-0.377-0.351c-0.686-0.828-1.453-1.593-2.254-1.856c-0.682-0.225-1.488-0.051-2.454,0.873l-0.076,0.072
	l-0.002-0.002c-1.096,0.98-3.325,1.544-5.489,1.601c-2.183,0.056-4.394-0.408-5.456-1.483c-0.013-0.013-0.026-0.025-0.038-0.039
	l-0.04-0.043l0.001-0.003l-0.015-0.014c-0.192-0.216-0.328-0.384-0.458-0.549l0.002-0.001c-0.473-0.594-0.879-1.1-2.353-0.131
	c-0.2,0.152-0.454,0.233-0.722,0.213c-0.582-0.045-1.015-0.555-0.97-1.135c0.058-0.736-0.319-1.594-0.905-2.229
	c-0.218-0.236-0.459-0.435-0.711-0.575c-0.223-0.125-0.457-0.204-0.687-0.223c-0.336-0.027-0.696,0.091-1.049,0.417
	c-3.292,3.035-5.426,1.966-8.233,0.561c-0.769-0.386-1.6-0.801-2.514-1.13L5.283,28.297L5.283,28.297z M40.596,34.589
	C40.591,34.586,40.59,34.586,40.596,34.589L40.596,34.589L40.596,34.589z"/>
<path fill-rule="evenodd" clip-rule="evenodd" fill="#55BE8E" d="M17.76,45.083c0.772,0,1.399,0.627,1.399,1.398
	c0,0.772-0.627,1.399-1.399,1.399c-0.773,0-1.399-0.627-1.399-1.399C16.361,45.71,16.987,45.083,17.76,45.083L17.76,45.083z"/>
<path fill-rule="evenodd" clip-rule="evenodd" fill="#55BE8E" d="M19.441,39.837c0.688,0,1.247,0.56,1.247,1.249
	s-0.559,1.248-1.247,1.248c-0.69,0-1.249-0.559-1.249-1.248S18.751,39.837,19.441,39.837L19.441,39.837z"/>
<path fill-rule="evenodd" clip-rule="evenodd" fill="#55BE8E" d="M43.519,42.676c0.73,0,1.323,0.593,1.323,1.322
	c0,0.73-0.593,1.322-1.323,1.322c-0.729,0-1.321-0.592-1.321-1.322C42.197,43.269,42.789,42.676,43.519,42.676L43.519,42.676z"/>
<path fill-rule="evenodd" clip-rule="evenodd" fill="#55BE8E" d="M46.073,38.15c0.728,0,1.318,0.59,1.318,1.318
	c0,0.728-0.591,1.318-1.318,1.318s-1.318-0.591-1.318-1.318C44.755,38.74,45.346,38.15,46.073,38.15L46.073,38.15z"/>
<path fill-rule="evenodd" clip-rule="evenodd" fill="#55BE8E" d="M15.011,36.026c1.337,0,2.419,1.083,2.419,2.419
	c0,1.335-1.083,2.418-2.419,2.418c-1.335,0-2.417-1.083-2.417-2.418C12.593,37.109,13.676,36.026,15.011,36.026L15.011,36.026z
	 M15.011,36.877c0.867,0,1.568,0.701,1.568,1.568c0,0.865-0.701,1.568-1.568,1.568c-0.866,0-1.568-0.703-1.568-1.568
	C13.443,37.578,14.146,36.877,15.011,36.877L15.011,36.877z"/>
<path fill="#55BE8E" d="M26.526,3.571c1.601,0.433,3.067,0.653,4.496,0.65c1.423-0.005,2.84-0.228,4.349-0.685
	c3.7-1.123,7.42-1.874,10.729-1.383c3.554,0.529,6.562,2.404,8.489,6.572l0.002,0.006l0,0c0.664,1.435,1.209,2.942,1.643,4.5
	c0.426,1.536,0.743,3.125,0.953,4.748c1.069,8.239-0.643,17.201-4.271,24.331l-0.002,0.003c-0.451,0.892-0.951,1.786-1.496,2.67
	c-0.527,0.86-1.119,1.74-1.777,2.626c-3.326,4.496-7.857,8.388-13.27,9.553l-0.015,0.002v0.001c-0.11,0.023-0.222,0.046-0.332,0.067
	c-0.096,0.018-0.21,0.038-0.341,0.061c-0.568,0.096-1.152,0.162-1.748,0.195c-2.561,0.143-3.457-1.298-3.591-3.707
	c-0.07-1.254,0.113-2.744,0.317-4.415c0.483-3.939,1.103-8.997-1.609-12.091c-0.016,0.02-0.038,0.037-0.062,0.059
	c-2.862,2.305-2.265,7.585-1.792,11.766c0.23,2.028,0.434,3.83,0.247,5.221c-0.288,2.146-1.274,3.342-3.598,3.03
	c-3.906-0.524-7.355-2.328-10.286-4.988c-4.106-3.731-7.185-9.165-9.035-15.086C2.688,31.399,2.053,25.008,2.818,19.31
	C3.481,14.368,5.2,9.92,8.106,6.722l0.013-0.014l0,0c0.656-0.72,1.392-1.337,2.192-1.864c0.788-0.52,1.622-0.937,2.487-1.267
	C17.088,1.947,22.292,2.43,26.526,3.571L26.526,3.571z M31.021,7.379c-1.735,0.004-3.466-0.25-5.312-0.748
	C21.99,5.628,17.485,5.18,13.912,6.538c-0.666,0.253-1.292,0.566-1.868,0.944c-0.565,0.374-1.097,0.822-1.585,1.358v0l-0.011,0.012
	c-2.452,2.7-3.916,6.548-4.498,10.88C5.248,24.97,5.841,30.879,7.547,36.336c1.691,5.412,4.468,10.346,8.144,13.686
	c2.472,2.245,5.351,3.764,8.576,4.195c0.001,0,0.018-0.12,0.044-0.318c0.131-0.987-0.053-2.617-0.261-4.452
	c-0.559-4.938-1.265-11.18,2.957-14.577c0.754-0.607,1.204-0.968,1.979-1.027c0.884-0.068,1.475,0.291,2.283,1.167
	c3.834,4.16,3.104,10.117,2.536,14.741c-0.188,1.542-0.357,2.92-0.305,3.859c0.025,0.453,0.094,0.73,0.261,0.722
	c0.468-0.026,0.935-0.079,1.401-0.159c0.07-0.012,0.16-0.027,0.266-0.049c0.09-0.017,0.181-0.035,0.27-0.055l0,0l0.017-0.003
	c4.552-0.979,8.462-4.385,11.387-8.338c0.559-0.755,1.101-1.563,1.616-2.403c0.502-0.817,0.961-1.639,1.373-2.447l0.002-0.004
	c3.359-6.604,4.947-14.89,3.961-22.496c-0.189-1.458-0.477-2.899-0.867-4.303c-0.384-1.382-0.872-2.726-1.469-4.017l0,0
	l-0.002-0.008c-1.402-3.03-3.551-4.387-6.074-4.762c-2.768-0.411-6.047,0.266-9.355,1.27C34.479,7.105,32.762,7.374,31.021,7.379
	L31.021,7.379z M29.133,37.044c0.133-0.036,0.257-0.057,0.088-0.044C29.155,37.004,29.136,37.019,29.133,37.044L29.133,37.044z"/>
<path fill="#55BE8E" d="M18.877,11.993c-0.547-0.198-0.83-0.802-0.631-1.35c0.199-0.548,0.803-0.831,1.35-0.632l0.12,0.043
	l0.045,0.017c0.914,0.327,1.831,0.609,2.752,0.846c0.938,0.242,1.885,0.436,2.839,0.585c4.879,0.763,9.928,0.317,15.092-1.327
	C41,10,41.592,10.306,41.768,10.86c0.174,0.553-0.133,1.146-0.686,1.321c-5.479,1.745-10.849,2.215-16.051,1.402
	c-1.017-0.159-2.029-0.368-3.036-0.625c-0.991-0.255-1.969-0.556-2.939-0.902c-0.019-0.006-0.039-0.013-0.057-0.02L18.877,11.993
	L18.877,11.993z"/>
<path fill="#55BE8E" d="M5.283,27.514c1.034,0.372,1.923,0.817,2.746,1.23c2.066,1.034,3.638,1.821,5.864-0.231
	c0.83-0.766,1.745-1.041,2.643-0.97c0.54,0.043,1.062,0.217,1.547,0.487c0.456,0.254,0.875,0.596,1.238,0.988
	c0.542,0.588,0.972,1.315,1.224,2.076c2.049-0.889,2.875,0.144,3.819,1.324l0.001,0.001l0.002-0.001
	c0.129,0.16,0.263,0.327,0.364,0.439h0.001l0.04,0.043c0.615,0.632,2.225,0.897,3.9,0.854c1.722-0.046,3.417-0.422,4.136-1.066
	l0.002-0.002l-0.002-0.003c0.028-0.024,0.02-0.016,0.026-0.021c1.638-1.566,3.166-1.811,4.56-1.352
	c1.271,0.416,2.322,1.426,3.216,2.503c0.037,0.003,0.01-0.144,0.144-0.233c0.423-0.285,0.902-0.781,1.367-1.339
	c0.99-1.188,1.859-2.595,2.082-2.992c0.281-0.508,0.924-0.691,1.432-0.409c0.091,0.051,0.172,0.113,0.241,0.185
	c0.71,0.705,1.388,1.29,1.946,1.242c0.629-0.054,1.4-0.814,2.438-2.853c0.172-0.337,0.5-0.542,0.851-0.574l0,0l3.517-0.308
	l0.182,2.105l-2.942,0.258c-1.331,2.421-2.606,3.368-3.86,3.477c-1,0.087-1.854-0.339-2.656-0.98
	c-0.428,0.649-0.998,1.461-1.609,2.196c-0.58,0.695-1.208,1.335-1.814,1.743c-0.881,0.594-1.76,0.761-2.553,0.192
	c-0.139-0.098-0.265-0.216-0.377-0.351c-0.686-0.828-1.453-1.593-2.254-1.856c-0.682-0.225-1.488-0.051-2.454,0.873l-0.076,0.072
	L34.21,34.26c-1.096,0.98-3.325,1.544-5.489,1.601c-2.183,0.056-4.394-0.408-5.456-1.483c-0.013-0.013-0.026-0.025-0.038-0.039
	l-0.04-0.043l0.001-0.003l-0.015-0.014c-0.192-0.216-0.328-0.384-0.458-0.549l0.002-0.001c-0.473-0.594-0.879-1.1-2.353-0.131
	c-0.2,0.152-0.454,0.233-0.722,0.213c-0.582-0.045-1.015-0.555-0.97-1.135c0.058-0.736-0.319-1.594-0.905-2.229
	c-0.218-0.236-0.459-0.435-0.711-0.575c-0.223-0.125-0.457-0.204-0.687-0.223c-0.336-0.027-0.696,0.091-1.049,0.417
	c-3.292,3.035-5.426,1.966-8.233,0.561c-0.769-0.386-1.6-0.801-2.514-1.13L5.283,27.514L5.283,27.514z M40.596,33.806
	C40.591,33.803,40.59,33.803,40.596,33.806L40.596,33.806L40.596,33.806z"/>
<path fill-rule="evenodd" clip-rule="evenodd" fill="#55BE8E" d="M17.76,44.3c0.772,0,1.399,0.627,1.399,1.398
	c0,0.772-0.627,1.399-1.399,1.399c-0.773,0-1.399-0.627-1.399-1.399C16.361,44.927,16.987,44.3,17.76,44.3L17.76,44.3z"/>
<path fill-rule="evenodd" clip-rule="evenodd" fill="#55BE8E" d="M19.441,39.054c0.688,0,1.247,0.56,1.247,1.249
	s-0.559,1.248-1.247,1.248c-0.69,0-1.249-0.559-1.249-1.248S18.751,39.054,19.441,39.054L19.441,39.054z"/>
<path fill-rule="evenodd" clip-rule="evenodd" fill="#55BE8E" d="M43.519,41.893c0.73,0,1.323,0.593,1.323,1.322
	c0,0.73-0.593,1.322-1.323,1.322c-0.729,0-1.321-0.592-1.321-1.322C42.197,42.485,42.789,41.893,43.519,41.893L43.519,41.893z"/>
<path fill-rule="evenodd" clip-rule="evenodd" fill="#55BE8E" d="M46.073,37.367c0.728,0,1.318,0.59,1.318,1.318
	c0,0.728-0.591,1.318-1.318,1.318s-1.318-0.591-1.318-1.318C44.755,37.957,45.346,37.367,46.073,37.367L46.073,37.367z"/>
<path fill-rule="evenodd" clip-rule="evenodd" fill="#55BE8E" d="M15.011,35.243c1.337,0,2.419,1.083,2.419,2.419
	c0,1.335-1.083,2.418-2.419,2.418c-1.335,0-2.417-1.083-2.417-2.418C12.593,36.326,13.676,35.243,15.011,35.243L15.011,35.243z
	 M15.011,36.094c0.867,0,1.568,0.701,1.568,1.568c0,0.865-0.701,1.568-1.568,1.568c-0.866,0-1.568-0.703-1.568-1.568
	C13.443,36.795,14.146,36.094,15.011,36.094L15.011,36.094z"/>
</svg>
