<?xml version="1.0" encoding="utf-8"?>
<!-- Generator: Adobe Illustrator 16.0.0, SVG Export Plug-In . SVG Version: 6.00 Build 0)  -->
<!DOCTYPE svg PUBLIC "-//W3C//DTD SVG 1.1//EN" "http://www.w3.org/Graphics/SVG/1.1/DTD/svg11.dtd">
<svg version="1.1" id="Layer_1" xmlns="http://www.w3.org/2000/svg" xmlns:xlink="http://www.w3.org/1999/xlink" x="0px" y="0px"
	 width="120px" height="120px" viewBox="0 0 120 120" enable-background="new 0 0 120 120" xml:space="preserve">
<polygon fill-rule="evenodd" clip-rule="evenodd" fill="#55BE8E" points="95.662,11.748 99.061,25.158 112.446,27.859 
	99.052,31.959 95.668,43.689 92.302,32.023 78.881,27.646 92.271,25.125 95.662,11.748 "/>
<polygon fill-rule="evenodd" clip-rule="evenodd" fill="#55BE8E" points="67.864,7.418 69.315,13.145 75.031,14.297 69.312,16.047 
	67.867,21.057 66.43,16.074 60.699,14.207 66.417,13.129 67.864,7.418 "/>
<path fill-rule="evenodd" clip-rule="evenodd" fill="#55BE8E" d="M14.301,43.217l30.103-9.748l0.604-0.006l30.832,9.85
	c1.949,0.623,4.943,0.719,5.018,3.279c0.965,33.289-8.309,56.539-36.143,64.721C11.059,102.041,7.71,71.186,8.791,46.584
	C8.899,44.129,12.412,43.828,14.301,43.217L14.301,43.217z M15.563,49.236l28.841-9.357l0.6-0.006l29.07,9.299
	c0.445,0.352,0.795,0.588,0.826,1.664c0.806,27.795-8.281,45.502-30.186,52.906c-27.91-8.695-30.888-32.373-29.985-52.912
	C14.775,49.791,15.037,49.568,15.563,49.236L15.563,49.236z"/>
<path fill="#55BE8E" d="M42.76,56.326c0.939,0.254,1.797,0.383,2.626,0.381c0.826-0.002,1.649-0.133,2.528-0.4
	c2.268-0.688,4.551-1.146,6.596-0.842c2.24,0.332,4.136,1.514,5.349,4.133l0.002,0.006l0,0c0.405,0.879,0.74,1.801,1.006,2.758
	c0.26,0.938,0.453,1.908,0.582,2.902c0.651,5.023-0.393,10.484-2.603,14.828l-0.001,0.004c-0.277,0.545-0.582,1.09-0.913,1.629
	c-0.319,0.52-0.682,1.057-1.087,1.604c-2.042,2.762-4.832,5.152-8.174,5.869l-0.013,0.004l0,0c-0.068,0.014-0.138,0.029-0.206,0.041
	c-0.058,0.012-0.128,0.023-0.212,0.037c-0.352,0.061-0.713,0.102-1.084,0.121c-1.776,0.1-2.397-0.881-2.489-2.523
	c-0.044-0.785,0.067-1.695,0.192-2.713c0.271-2.207,0.615-5.014-0.696-6.793c-1.368,1.367-1.037,4.297-0.772,6.635
	c0.141,1.24,0.266,2.344,0.147,3.219c-0.198,1.484-0.888,2.311-2.515,2.092c-2.419-0.324-4.552-1.439-6.36-3.082
	c-2.516-2.285-4.398-5.605-5.529-9.221c-1.118-3.58-1.505-7.477-1.039-10.953c0.408-3.035,1.469-5.773,3.264-7.748l0.009-0.01l0,0
	c0.412-0.451,0.876-0.84,1.38-1.172c0.496-0.326,1.019-0.588,1.559-0.793C36.959,55.33,40.16,55.625,42.76,56.326L42.76,56.326z
	 M45.386,59.227c-1.075,0.004-2.143-0.152-3.278-0.459c-2.188-0.59-4.831-0.857-6.912-0.066c-0.381,0.145-0.739,0.322-1.064,0.535
	c-0.317,0.209-0.618,0.463-0.896,0.768l0,0l-0.009,0.01c-1.432,1.576-2.288,3.836-2.631,6.383c-0.417,3.111-0.063,6.621,0.95,9.865
	c1.004,3.209,2.646,6.131,4.817,8.104c1.363,1.24,2.938,2.1,4.688,2.402c0.046-0.568-0.057-1.475-0.171-2.484
	c-0.345-3.049-0.781-6.9,1.895-9.053c0.501-0.404,0.8-0.645,1.363-0.688c0.648-0.049,1.068,0.197,1.625,0.803
	c2.406,2.611,1.957,6.277,1.607,9.125c-0.112,0.916-0.212,1.732-0.183,2.268c0.005,0.082-0.304,0.15-0.169,0.143
	c0.268-0.016,0.537-0.047,0.807-0.092c0.037-0.006,0.09-0.016,0.152-0.027c0.053-0.01,0.105-0.021,0.156-0.031l0,0l0.013-0.004
	c2.657-0.57,4.95-2.574,6.672-4.9c0.327-0.441,0.648-0.922,0.958-1.426c0.299-0.486,0.57-0.973,0.814-1.451l0.001-0.004
	c1.997-3.924,2.941-8.848,2.355-13.365c-0.111-0.861-0.281-1.715-0.513-2.547c-0.227-0.814-0.515-1.609-0.867-2.371l0,0
	l-0.003-0.006c-0.792-1.713-2.002-2.48-3.421-2.691c-1.613-0.24-3.544,0.162-5.498,0.754C47.527,59.059,46.465,59.225,45.386,59.227
	L45.386,59.227z"/>
<path fill="#55BE8E" d="M38.811,64.182c-0.295-0.107-0.448-0.434-0.341-0.729s0.434-0.449,0.729-0.342l0.065,0.023l0.024,0.01
	c0.494,0.176,0.989,0.33,1.486,0.457c0.507,0.129,1.018,0.234,1.533,0.314c2.635,0.412,5.361,0.172,8.151-0.717
	c0.299-0.094,0.618,0.072,0.713,0.371s-0.071,0.619-0.37,0.713c-2.959,0.943-5.858,1.197-8.668,0.758
	c-0.549-0.086-1.097-0.199-1.64-0.338c-0.534-0.137-1.063-0.301-1.587-0.488c-0.011-0.002-0.021-0.006-0.031-0.01L38.811,64.182
	L38.811,64.182z"/>
</svg>
