<?xml version="1.0" encoding="utf-8"?>
<!-- Generator: Adobe Illustrator 15.0.0, SVG Export Plug-In  -->
<!DOCTYPE svg PUBLIC "-//W3C//DTD SVG 1.1//EN" "http://www.w3.org/Graphics/SVG/1.1/DTD/svg11.dtd" [
	<!ENTITY ns_flows "http://ns.adobe.com/Flows/1.0/">
]>
<svg version="1.1"
	 xmlns="http://www.w3.org/2000/svg" xmlns:xlink="http://www.w3.org/1999/xlink" xmlns:a="http://ns.adobe.com/AdobeSVGViewerExtensions/3.0/"
	 x="0px" y="0px" width="55px" height="57px" viewBox="0 0 55 57" overflow="visible" enable-background="new 0 0 55 57"
	 xml:space="preserve">
<defs>
</defs>
<g>
	<defs>
		<rect id="SVGID_1_" width="55" height="56.833"/>
	</defs>
	<clipPath id="SVGID_2_">
		<use xlink:href="#SVGID_1_"  overflow="visible"/>
	</clipPath>
	<path clip-path="url(#SVGID_2_)" fill="#55BE8E" d="M20.832,10.075c1.39,0.374,2.662,0.566,3.902,0.563
		c1.233-0.004,2.459-0.198,3.766-0.595c3.213-0.973,6.438-1.622,9.304-1.197c3.082,0.458,5.688,2.084,7.359,5.697l0.005,0.005
		c0.573,1.243,1.048,2.551,1.423,3.902c0.372,1.333,0.645,2.709,0.826,4.118c0.929,7.146-0.558,14.913-3.704,21.096l-0.001,0.003
		c-0.394,0.772-0.826,1.549-1.298,2.315c-0.457,0.746-0.973,1.51-1.54,2.276c-2.883,3.9-6.812,7.273-11.507,8.283l-0.014,0.002
		c-0.096,0.021-0.191,0.041-0.287,0.059c-0.083,0.016-0.182,0.033-0.297,0.053c-0.491,0.084-0.996,0.141-1.512,0.17
		c-2.221,0.123-3.001-1.125-3.115-3.213c-0.06-1.09,0.098-2.381,0.272-3.83c0.423-3.415,0.962-7.801-1.393-10.482
		c-0.013,0.014-0.031,0.033-0.055,0.05c-2.478,1.997-1.963,6.576-1.555,10.201c0.203,1.759,0.376,3.321,0.214,4.526
		c-0.246,1.861-1.101,2.898-3.119,2.627c-3.385-0.453-6.377-2.016-8.917-4.324C6.031,49.145,3.361,44.433,1.754,39.3
		c-1.59-5.098-2.143-10.637-1.477-15.578c0.574-4.287,2.065-8.143,4.587-10.917l0.006-0.01c0.573-0.624,1.21-1.16,1.903-1.617
		c0.683-0.45,1.406-0.814,2.158-1.098C12.651,8.666,17.162,9.085,20.832,10.075 M24.734,13.375
		c-1.504,0.005-3.006-0.216-4.612-0.648c-3.223-0.868-7.128-1.258-10.224-0.081c-0.578,0.22-1.122,0.49-1.623,0.821
		c-0.49,0.322-0.95,0.71-1.372,1.175l-0.01,0.012c-2.127,2.338-3.398,5.675-3.902,9.432c-0.607,4.544-0.093,9.666,1.386,14.397
		c1.463,4.693,3.873,8.97,7.061,11.867c2.142,1.947,4.642,3.264,7.437,3.639c0.002,0,0.011-0.105,0.038-0.277
		c0.116-0.855-0.046-2.27-0.226-3.859c-0.487-4.285-1.096-9.693,2.562-12.64c0.654-0.526,1.044-0.839,1.715-0.89
		c0.768-0.06,1.284,0.251,1.984,1.012c3.325,3.607,2.687,8.77,2.198,12.78c-0.162,1.337-0.312,2.532-0.264,3.346
		c0.019,0.394,0.078,0.634,0.222,0.626c0.411-0.021,0.812-0.068,1.219-0.139c0.063-0.01,0.136-0.023,0.226-0.041
		c0.083-0.016,0.16-0.03,0.238-0.048l0.014-0.002c3.945-0.85,7.336-3.802,9.874-7.229c0.484-0.656,0.95-1.355,1.402-2.085
		c0.437-0.708,0.83-1.421,1.188-2.122l0.003-0.002c2.91-5.727,4.29-12.913,3.435-19.507c-0.164-1.264-0.417-2.512-0.752-3.73
		c-0.334-1.197-0.756-2.364-1.276-3.483l-0.001-0.006c-1.217-2.626-3.078-3.804-5.266-4.129c-2.402-0.358-5.243,0.23-8.109,1.101
		C27.729,13.139,26.239,13.371,24.734,13.375 M23.093,39.098c0.117-0.033,0.225-0.051,0.077-0.039
		C23.114,39.063,23.098,39.075,23.093,39.098"/>
	<path clip-path="url(#SVGID_2_)" fill="#55BE8E" d="M14.204,17.378c-0.479-0.171-0.723-0.696-0.549-1.17
		c0.173-0.476,0.695-0.72,1.169-0.549l0.105,0.039l0.036,0.014c0.799,0.284,1.593,0.528,2.39,0.734
		c0.814,0.207,1.633,0.377,2.461,0.507c4.229,0.661,8.609,0.276,13.084-1.151c0.481-0.153,0.995,0.114,1.148,0.594
		c0.15,0.481-0.116,0.994-0.596,1.145c-4.748,1.514-9.405,1.921-13.917,1.215c-0.879-0.137-1.761-0.318-2.633-0.543
		c-0.858-0.22-1.706-0.48-2.548-0.781c-0.017-0.006-0.035-0.011-0.047-0.015L14.204,17.378z"/>
	<polygon clip-path="url(#SVGID_2_)" fill-rule="evenodd" clip-rule="evenodd" fill="#55BE8E" points="47.31,0.757 48.867,6.9 
		55,8.137 48.862,10.015 47.311,15.391 45.771,10.047 39.618,8.042 45.757,6.887 	"/>
	<polygon clip-path="url(#SVGID_2_)" fill-rule="evenodd" clip-rule="evenodd" fill="#55BE8E" points="40.029,0 40.692,2.625 
		43.312,3.153 40.689,3.954 40.029,6.25 39.372,3.967 36.747,3.11 39.365,2.618 	"/>
</g>
</svg>
